<svg xmlns="http://www.w3.org/2000/svg" viewBox="0 0 179.72 179.72"><defs><style>.cls-1{fill:#fff;}</style></defs><title>email</title><g id="Layer_2" data-name="Layer 2"><g id="Layer_1-2" data-name="Layer 1"><path d="M179.72,89.86V90l-.59,37.7a52,52,0,0,1-51.43,51.44l-37.84.59h-.13L52,179.13A52,52,0,0,1,.59,127.7L0,89.86v-.13L.59,52A52,52,0,0,1,52,.59L89.86,0H90l37.7.59A52,52,0,0,1,179.13,52Z"/><path class="cls-1" d="M149.21,58.26h0a56.15,56.15,0,0,0-2-5.82,49.46,49.46,0,0,0-2.77-5.6,41.62,41.62,0,0,0-7.94-10,40.07,40.07,0,0,0-10.79-7,43,43,0,0,0-12.22-3.19,58.89,58.89,0,0,0-24,2.63A84.38,84.38,0,0,0,68.17,39.54,95.55,95.55,0,0,0,50.42,54.72,87.34,87.34,0,0,0,43.14,64,92.77,92.77,0,0,0,29.76,96.22a94.81,94.81,0,0,0-1.68,11.54A90.1,90.1,0,0,0,28,119.47a70.19,70.19,0,0,0,1.71,11.7,53.24,53.24,0,0,0,4,11.37,38.38,38.38,0,0,0,7.14,10.15,31.93,31.93,0,0,0,10.56,7.05,36.73,36.73,0,0,0,12.15,2.59c.76,0,1.52.06,2.29.06a55,55,0,0,0,9.67-.92,75.09,75.09,0,0,0,11.31-3A96.08,96.08,0,0,0,97.47,154a3.89,3.89,0,0,0-3.17-7.1l-.23.1a77.22,77.22,0,0,1-19.95,6.56,44.24,44.24,0,0,1-10.12.6,28.61,28.61,0,0,1-9.41-2.1,23.35,23.35,0,0,1-7.69-5.29,30,30,0,0,1-5.44-8,45.26,45.26,0,0,1-3.22-9.54A61.56,61.56,0,0,1,36.9,119a80,80,0,0,1,.25-10.44,85.37,85.37,0,0,1,4.56-20.47,87.74,87.74,0,0,1,4.12-9.64,84.27,84.27,0,0,1,5.31-9,78.41,78.41,0,0,1,6.49-8.08A86.21,86.21,0,0,1,73.69,48,73.51,73.51,0,0,1,92.42,39.3a48.22,48.22,0,0,1,19.75-2,32.29,32.29,0,0,1,9.12,2.5A29.19,29.19,0,0,1,129,44.94a34.8,34.8,0,0,1,9.36,16.41,63.07,63.07,0,0,1,1.91,20.14,81.7,81.7,0,0,1-3.7,20.3,61,61,0,0,1-3.78,9.4c-2.67,5.18-7.37,8.13-11.44,7.16-4.4-1-7.07-6.46-7.12-14.48,0-4.93,1.09-13.53,3.42-26.27a32.56,32.56,0,0,0,.66-5.59c0-1.85-.8-5-6.1-5-.51,0-1.17-.16-1.68-1.42-1.91-4.46-4.89-6.72-8.87-6.72-10.12,0-20.38,6.63-30.5,19.7S56,103.93,56,115.26a16.77,16.77,0,0,0,3.81,11.28A11.84,11.84,0,0,0,69,131c5,0,10.58-2.07,16.53-6.16,5.31-3.64,10.72-9,16.13-15.9a47.78,47.78,0,0,0,4,17.34c1.84,3.92,7,8.32,13.26,9.15,4.42.58,11.09-.39,17.75-8.29a51.42,51.42,0,0,0,6.86-10.64,75.51,75.51,0,0,0,4.34-11.2A94.49,94.49,0,0,0,151.83,82,75.24,75.24,0,0,0,149.21,58.26Zm-76.32,62.2c-2.66,0-5.83-1.45-5.83-8.32,0-7.08,3.8-16.06,11.31-26.69,7.69-10.87,14.34-16.16,20.34-16.16,3.19,0,7,1.75,7,10.09,0,8.11-4.25,17.06-12.65,26.62a72.5,72.5,0,0,1-11.4,10.88C78.3,119.28,75.4,120.46,72.89,120.46Z"/></g></g></svg>