<svg xmlns="http://www.w3.org/2000/svg" viewBox="0 0 179.72 179.72"><title>email</title><g id="Layer_2" data-name="Layer 2"><g id="Layer_1-2" data-name="Layer 1"><path d="M179.13,52A52,52,0,0,0,127.69.59L90,0h-.13L52,.59A52,52,0,0,0,.59,52L0,89.73v.13L.59,127.7A52,52,0,0,0,52,179.13l37.7.59h.13l37.84-.59a52,52,0,0,0,51.43-51.44l.59-37.7v-.13ZM42.52,47.15H137.2A11.38,11.38,0,0,1,147.79,55L109.7,83.74l-.48.37L93.61,95.88a5.89,5.89,0,0,1-7.49,0L70.5,84.11,70,83.74,31.93,55A11.39,11.39,0,0,1,42.52,47.15ZM31.2,62.49,65,88,31.2,116.75Zm106,70.08H42.52a11.48,11.48,0,0,1-10.9-8.85l38-32.29L82.26,101a12.19,12.19,0,0,0,15.2,0l12.67-9.56,38,32.28A11.48,11.48,0,0,1,137.2,132.57Zm11.33-15.82L114.7,88l33.83-25.5Z"/></g></g></svg>