<svg xmlns="http://www.w3.org/2000/svg" viewBox="0 0 179.73 179.73"><defs><style>.cls-1{fill:#010101;}</style></defs><title>facebook</title><g id="Layer_2" data-name="Layer 2"><g id="Layer_1-2" data-name="Layer 1"><path class="cls-1" d="M179.13,52A52,52,0,0,0,127.7.6L90,0h-.14L52,.6A52,52,0,0,0,.59,52L0,89.74v.13L.59,127.7A52,52,0,0,0,52,179.14l7.33.11V103.84H45.72a3.44,3.44,0,0,1-3.4-3.49V83a3.45,3.45,0,0,1,3.4-3.49H59.36V63.08c0-7.21.19-18.35,5.49-25.25,12.4-16.2,37.57-12,47-9.76a4.52,4.52,0,0,1,3.37,4.83l-1.45,16.35a3.08,3.08,0,0,1-3.38,2.84c-1.56-.18-3.75-.39-6.59-.56C89.85,50.71,86,55.08,86,61.64V79.46h20.56a4.21,4.21,0,0,1,4.12,4.59l-1.24,15.88a4.17,4.17,0,0,1-4.12,3.91H85.76v75.83l4,.06h.13l37.84-.6a52,52,0,0,0,51.43-51.43l.59-37.7v-.13Z"/></g></g></svg>