<svg xmlns="http://www.w3.org/2000/svg" viewBox="0 0 179.73 179.73"><defs><style>.cls-1{fill:#010101;}.cls-2{fill:#fff;fill-rule:evenodd;}</style></defs><title>facebook</title><g id="Layer_2" data-name="Layer 2"><g id="Layer_1-2" data-name="Layer 1"><path class="cls-1" d="M179.73,89.87V90l-.59,37.7a52,52,0,0,1-51.43,51.43l-37.84.6h-.13l-4-.06-26.4-.42L52,179.14A52,52,0,0,1,.59,127.7L0,89.87v-.13L.59,52A52,52,0,0,1,52,.6L89.86,0H90L127.7.6A52,52,0,0,1,179.13,52Z"/><path class="cls-2" d="M115.26,32.9l-1.45,16.35a3.08,3.08,0,0,1-3.38,2.84c-1.56-.18-3.75-.39-6.59-.56C89.85,50.71,86,55.08,86,61.64V79.46h20.56a4.21,4.21,0,0,1,4.12,4.59l-1.24,15.88a4.17,4.17,0,0,1-4.12,3.91H85.76v75.83l-26.4-.42V103.84H45.72a3.44,3.44,0,0,1-3.4-3.49V83a3.45,3.45,0,0,1,3.4-3.49H59.36V63.08c0-7.21.19-18.35,5.49-25.25,12.4-16.2,37.57-12,47-9.76A4.52,4.52,0,0,1,115.26,32.9Z"/></g></g></svg>