<svg xmlns="http://www.w3.org/2000/svg" viewBox="0 0 179.73 179.72"><title>instagram</title><g id="Layer_2" data-name="Layer 2"><g id="Layer_1-2" data-name="Layer 1"><path d="M179.58,80.52,179.13,52A52,52,0,0,0,127.7.59L90,0h-.14L52,.59A52,52,0,0,0,.59,52L.15,80.52,0,89.73v.13l.59,37.83A52,52,0,0,0,52,179.13l37.7.59h.13l37.84-.59a52,52,0,0,0,51.43-51.44l.59-37.7v-.13ZM140.29,25.85A13.6,13.6,0,1,1,126.7,39.44,13.59,13.59,0,0,1,140.29,25.85ZM60.85,80.52a30.16,30.16,0,0,1,57.36,0,29.76,29.76,0,0,1,1.49,9.34,30.17,30.17,0,1,1-60.34,0A29.76,29.76,0,0,1,60.85,80.52Zm98.29,46.86a32.24,32.24,0,0,1-31.67,31.75l-37.61.59-37.52-.59a32.23,32.23,0,0,1-31.75-31.66L20,89.87l.14-9.35H40.23a50.17,50.17,0,1,0,99.47,9.34,49.63,49.63,0,0,0-.88-9.34h20.75l.15,9.31Z"/></g></g></svg>