<svg xmlns="http://www.w3.org/2000/svg" viewBox="0 0 179.72 179.72"><defs><style></style></defs><title>phone</title><g id="Layer_2" data-name="Layer 2"><g id="Layer_1-2" data-name="Layer 1"><path class="cls-1" d="M179.13,52A52,52,0,0,0,127.69.59L90,0h-.13L52,.59A52,52,0,0,0,.59,52L0,89.73v.13L.59,127.7A52,52,0,0,0,52,179.13l37.7.59h.13l37.84-.59a52,52,0,0,0,51.43-51.44l.59-37.7v-.13Zm-28.94,93.33a7.89,7.89,0,0,1-2.23,5.7,7.44,7.44,0,0,1-5.6,2.31q-19.94,0-40-10.23A142.33,142.33,0,0,1,66,116.71,141.26,141.26,0,0,1,39.68,80.5Q29.6,60.61,29.54,40.8a8.25,8.25,0,0,1,2.14-5.69,7.45,7.45,0,0,1,5.69-2.39H57.65a6.88,6.88,0,0,1,4.81,1.78,9.13,9.13,0,0,1,2.67,4.8l4.27,19a12.89,12.89,0,0,1-.18,4.81,6.92,6.92,0,0,1-2.14,3.56L56.48,77.08a10.62,10.62,0,0,0-1.43,13.46,139.5,139.5,0,0,0,18,22,127.21,127.21,0,0,0,21.26,16.85,10.6,10.6,0,0,0,13.3-1.67l10.19-10.64a9.9,9.9,0,0,1,4-2.76,8.46,8.46,0,0,1,4.72-.27L143.78,118a7.62,7.62,0,0,1,4.63,2.67,7.76,7.76,0,0,1,1.78,5.16Z"/></g></g></svg>