<svg xmlns="http://www.w3.org/2000/svg" viewBox="0 0 179.73 179.73"><defs><style>.cls-1{fill:#010101;}.cls-2{fill:#fff;fill-rule:evenodd;}</style></defs><title>pinterest</title><g id="Layer_2" data-name="Layer 2"><g id="Layer_1-2" data-name="Layer 1"><path class="cls-1" d="M179.73,89.87V90l-.6,37.7a52,52,0,0,1-51.43,51.43l-37.83.6h-.14L61,179.28,52,179.14c-1.16,0-2.31-.06-3.45-.16a52,52,0,0,1-48-51.28L0,89.87v-.13L.59,52A52,52,0,0,1,52,.6L89.87,0H90L127.7.6A52,52,0,0,1,179.13,52Z"/><path class="cls-2" d="M151.17,80.68c0,37.54-20.87,65.59-51.64,65.59-10.33,0-20-5.59-23.38-11.93,0,0-5.55,22-6.73,26.31A76.92,76.92,0,0,1,61,179.28L52,179.14c-1.16,0-2.31-.06-3.45-.16-.39-7-.31-15.94,1.58-23.93C52,147.27,62.47,102.9,62.47,102.9a36.83,36.83,0,0,1-3-15.14C59.42,73.57,67.64,63,77.87,63c8.71,0,12.91,6.54,12.91,14.37,0,8.76-5.57,21.84-8.45,34-2.4,10.15,5.09,18.44,15.1,18.44,18.14,0,30.35-23.3,30.35-50.89,0-21-14.13-36.68-39.83-36.68-29,0-47.11,21.66-47.11,45.84,0,8.34,2.46,14.22,6.31,18.77,1.77,2.09,2,2.93,1.38,5.33-.47,1.77-1.51,6-2,7.69a3.3,3.3,0,0,1-4.79,2.39c-13.36-5.45-19.6-20.1-19.6-36.56,0-27.18,22.93-59.79,68.41-59.79C127.13,25.85,151.17,52.29,151.17,80.68Z"/></g></g></svg>