<svg xmlns="http://www.w3.org/2000/svg" viewBox="0 0 179.73 179.72"><defs><style>.cls-1{fill:#fff;}</style></defs><title>instagram</title><g id="Layer_2" data-name="Layer 2"><g id="Layer_1-2" data-name="Layer 1"><path d="M179.58,80.52,179.13,52A52,52,0,0,0,127.7.59L90,0h-.14L52,.59A52,52,0,0,0,.59,52L.15,80.52,0,89.73v.13l.59,37.83A52,52,0,0,0,52,179.13l37.7.59h.13l37.84-.59a52,52,0,0,0,51.43-51.44l.59-37.7v-.13ZM89.52,59.69a30.21,30.21,0,0,1,28.69,20.83,29.76,29.76,0,0,1,1.49,9.34,30.17,30.17,0,1,1-60.34,0,29.76,29.76,0,0,1,1.49-9.34A30.19,30.19,0,0,1,89.52,59.69Zm69.62,67.69a32.24,32.24,0,0,1-31.67,31.75l-37.61.59-37.52-.59a32.23,32.23,0,0,1-31.75-31.66L20,89.87l.14-9.35H40.23a50.17,50.17,0,1,0,99.47,9.34,49.63,49.63,0,0,0-.88-9.34h20.75l.15,9.31Z"/><circle class="cls-1" cx="140.29" cy="39.44" r="13.6"/></g></g></svg>