<svg xmlns="http://www.w3.org/2000/svg" viewBox="0 0 392.43 187.84"><defs><style>.cls-1{fill:#231f20;}.cls-2{fill:none;stroke:#231f20;stroke-miterlimit:10;stroke-width:3.68px;}</style></defs><title>Asset 5</title><g id="Layer_2" data-name="Layer 2"><g id="Layer_2-2" data-name="Layer 2"><path class="cls-1" d="M50.8,126.77c-.67,0-1.33-.52-2.07-1.59a21.21,21.21,0,0,1-2-3.46,104.57,104.57,0,0,1-5-16.54c-.74-3.72-1.4-7.51-2-11.34s-1-7.37-1.29-10.72c-.33-3.68-.48-6.34-.48-8.33a39.75,39.75,0,0,1,.52-6,1.11,1.11,0,0,1,.77-.59,6.19,6.19,0,0,1,4.13.55A3.58,3.58,0,0,1,44.61,70a6.13,6.13,0,0,1,.44,2.65s-.11,4.61,0,5.46a3.74,3.74,0,0,0,.19.92,29.53,29.53,0,0,0,2.43-1.77c1.58-1.25,3.53-2.84,5.82-4.75s4.6-3.94,7.37-6.41,5.19-4.61,7.66-6.78c1-.88,2.28-2.14,3.9-3.72s3.28-3.32,4.86-5.16a62.57,62.57,0,0,0,4.17-5.12,7,7,0,0,0,1.69-3.5c0-1-.29-1-.4-1a23.62,23.62,0,0,0-4.35.92c-2.21.59-4.83,1.4-7.7,2.39s-5.86,2.17-8.84,3.46a72.19,72.19,0,0,0-8.07,4c-2.43,1.66-4.86,3.5-7.29,5.45s-4.6,3.9-6.56,5.67-3.61,3.35-4.82,4.57a18.9,18.9,0,0,0-2,2.06l-.08.11a.34.34,0,0,0-.15.26,1.43,1.43,0,0,0,.15.59,2.17,2.17,0,0,1,.22.85,1.2,1.2,0,0,1-.66,1,6.1,6.1,0,0,1-4.38-.11,3,3,0,0,1-1.55-3c0-1.29.7-2.87,2.14-4.79a49.18,49.18,0,0,1,5.48-5.93,86.2,86.2,0,0,1,7.41-6.23c2.65-2,5.34-3.94,8-5.71a91.6,91.6,0,0,1,8.58-4.78c3.1-1.51,6.19-2.88,9.21-4A81.75,81.75,0,0,1,76.07,35a31.88,31.88,0,0,1,6.74-1,12.29,12.29,0,0,1,2.43.26,12.68,12.68,0,0,1,2.58.81,6.45,6.45,0,0,1,2.06,1.44,3.28,3.28,0,0,1,.88,2.28,15.15,15.15,0,0,1-2.13,7.44,44,44,0,0,1-5.53,7.59c-2.28,2.51-4.86,5.08-7.66,7.66S69.73,66.62,66.93,69L58.75,75.9c-2.06,1.77-3.83,3.39-5.34,4.9l3.13-1.18c2.14-.85,4.53-1.66,7.15-2.51s5.19-1.54,7.81-2.17a31.34,31.34,0,0,1,7-.92c.59,0,1.76,0,3.94.15a28.8,28.8,0,0,1,6.37,1,17.76,17.76,0,0,1,6,3,7.2,7.2,0,0,1,2.77,6A15.65,15.65,0,0,1,96,91a31.2,31.2,0,0,1-4,6.23,44.57,44.57,0,0,1-5.12,5.34c-1.81,1.62-3.5,3-5,4.12s-3.43,2.55-5.53,3.94c-.52.34-1,.7-1.51,1-1.55,1.06-3.06,2.06-4.6,2.91a58.55,58.55,0,0,0-11.61,8.32,3.27,3.27,0,0,1-3.57.59,3.21,3.21,0,0,1-1.88-3.06v0c0-2.14,6.23-7.41,10-9.47l.37-.22c1.84-1,4.38-2.4,7.44-4.35,1.66-1,3.69-2.43,6-4.09a67.29,67.29,0,0,0,6.63-5.49,38.1,38.1,0,0,0,5.3-6.07,10.63,10.63,0,0,0,2.17-6c0-.33-.36-1.07-2.61-2.06a19.63,19.63,0,0,0-7.74-1.22A41.65,41.65,0,0,0,69.84,83c-3.79,1-7.37,2.17-10.61,3.39s-6.08,2.36-8.4,3.39a22,22,0,0,1-4.09,1.55c.08,2.13.45,4.56.81,7.14,1,6.56,2.77,14.55,4,19.86.84,3.72,1.21,5.56,1.25,6C52.71,126,52.05,126.77,50.8,126.77Z"/><path class="cls-1" d="M117.43,114.87a3.24,3.24,0,0,1-2.65-1.88,19.58,19.58,0,0,1-1.84-4,35.68,35.68,0,0,1-1.33-4.27c-.37-1.32-.62-2.28-.77-2.8-.26-.81-.59-1.84-1.07-3.13s-.85-2.39-1.22-3.54-.73-2.13-1-3a7.06,7.06,0,0,1-.41-1.51,8.84,8.84,0,0,1,.74-3.57q.83-1.77,2.1-1.77c.92,0,1.84.63,2.8,2a27.49,27.49,0,0,1,2.58,4.68,62.73,62.73,0,0,1,2.28,6.19c.7,2.21,1.33,4.34,1.84,6.3s1,3.64,1.26,5.12a21.86,21.86,0,0,1,.48,2.61c0,.78-.56,1.4-1.59,1.88A5.53,5.53,0,0,1,117.43,114.87Z"/><path class="cls-1" d="M141.26,123.38a3,3,0,0,1-2.83-2,34,34,0,0,1-1.29-3.57c-.15-.44-.3-.89-.44-1.29-.52-1.51-1-3.06-1.37-4.68l-1.25-5c-.44-1.73-1-3.69-1.58-5.71-.92-3.32-1.92-6.89-3-10.94-1-3.83-2-7.55-2.87-11.13s-1.58-6.7-2.1-9.43a37.34,37.34,0,0,1-.81-5.85v0c0-3.46.74-6,1.47-6.92a2.19,2.19,0,0,1,1.81-1c1,0,1.32.85,1.8,2.21a40.55,40.55,0,0,1,1.33,4.53c.4,1.59.74,3.13,1.07,4.61.48,2.21.48,2.28.48,2.35.33,1.85.73,4,1.21,6.27s1,4.64,1.51,7,1.11,4.61,1.7,6.71a35.89,35.89,0,0,0,1.43,4.23,26.64,26.64,0,0,1,.74-2.61,43.92,43.92,0,0,1,2.1-5.42c.85-1.91,1.84-3.9,3-6a51.34,51.34,0,0,1,3.42-5.6,23.71,23.71,0,0,1,3.58-4.09,5.5,5.5,0,0,1,3.57-1.66,6.91,6.91,0,0,1,3.68.7A2.29,2.29,0,0,1,158.72,71c0,.44-.25,1.22-2.32,3.32a59.63,59.63,0,0,0-4.93,6,46.69,46.69,0,0,0-4.94,8.7,24.55,24.55,0,0,0-2.17,10.31,6.64,6.64,0,0,0,1.36,4.6,7.27,7.27,0,0,0,2.95,2.32,18.49,18.49,0,0,0,4.45,1.59,21.68,21.68,0,0,0,5,.59c1.51,0,3.13,0,4.82-.11l4.87-.33c1.54-.15,2.83-.26,3.94-.34s1.76-.14,2-.14a2.32,2.32,0,0,1,1.4.48,1.9,1.9,0,0,1,.7,1.58,2.88,2.88,0,0,1-.26,1.58,2.59,2.59,0,0,1-1.62,1c-.73.26-1.69.55-2.91.85s-2.46.62-3.86.92-2.88.59-4.28.81a26.9,26.9,0,0,1-4,.33c-1.51,0-3.17-.11-4.93-.26a38.36,38.36,0,0,1-5.2-.88c-1.69-.37-3.2-.85-4.57-1.29a10.1,10.1,0,0,1-2.21-1.11c.37,1.48.67,3,.92,4.39.37,1.84.63,3.68.82,5.52v0a2.23,2.23,0,0,1-.41,1.32C143,123.2,142.3,123.27,141.26,123.38Z"/><path class="cls-1" d="M199.24,106.1a13.61,13.61,0,0,0,2.62,4.17,19.57,19.57,0,0,0,4.53,3.72,22,22,0,0,0,5.16,2.32,17.62,17.62,0,0,0,5.08.81,23.68,23.68,0,0,0,10.2-2.32,36.51,36.51,0,0,0,8.62-5.64,31.7,31.7,0,0,0,5.86-6.78,12.06,12.06,0,0,0,2.21-6,1.87,1.87,0,0,0-2.06-2.06c-.85,0-1.81.85-2.91,2.58a42.69,42.69,0,0,1-4.24,5.34,29.17,29.17,0,0,1-6.59,5.27,18.29,18.29,0,0,1-9.51,2.35,13.67,13.67,0,0,1-7.14-1.58,7.28,7.28,0,0,1-.63-.4.49.49,0,0,0-.15-.12l-.11-.11a.2.2,0,0,1-.11-.07l-.07-.07a16.93,16.93,0,0,1-3.32-3.65l-.18-.29a10.63,10.63,0,0,1-1.77-5.75v-.11c0-3,.44-6.78.81-10.39.81-7.66,1.22-12-.4-12.34a2,2,0,0,0-1.81.44c-1.18-1-2.8-1.14-4.93-.44a17.4,17.4,0,0,0-7.33,5.49,39,39,0,0,0-4.54,7.33,38.06,38.06,0,0,0-3.2,9.17,36.11,36.11,0,0,0-.63,7.11,21.42,21.42,0,0,0,.26,2.29,21.17,21.17,0,0,0,.92,4.19,14.77,14.77,0,0,0,1.81,4,3.64,3.64,0,0,0,3.09,2C193.13,116.6,197.84,108.9,199.24,106.1Zm-8,1.29a8.62,8.62,0,0,1-.85-2.24c-.3-1.26-1.62-8,4.12-16.84a19.48,19.48,0,0,1,4.65-5A49.35,49.35,0,0,1,198,92a42.14,42.14,0,0,1-2,7.29A38.21,38.21,0,0,1,191.29,107.39Z"/><path class="cls-1" d="M249.93,115.94a3,3,0,0,1-2.69-2.14c-.7-2.54-1.07-8.87-1.25-11.9l-.08-.77c-.14-2.65-.29-5.49-.44-8.36s-.18-5.19-.18-7c0-.07.14-7.15,2-8.54a3.46,3.46,0,0,1,2.1-.85c.48,0,1.29.18,1.44,1.51.07.81.11,1.69.11,2.65,0,5.45,0,19,.55,23a61.39,61.39,0,0,0,2.21-6.33c.81-2.84,1.62-5.53,2.4-8.11a61.27,61.27,0,0,1,2.39-6.59c.85-2,1.73-2.87,2.69-2.87a4.9,4.9,0,0,1,2.25.55c1.43.7,2,4.64,2.43,8.25,0,.33.07.63.11.85a44.66,44.66,0,0,0,1,5.26,17.21,17.21,0,0,0,1.66,4.28,13,13,0,0,0,3,3.61,11.34,11.34,0,0,0,4,2.43,12.32,12.32,0,0,0,3.87.77,4.35,4.35,0,0,0,1.58-.33,5.39,5.39,0,0,1,1.44-.33c.52,0,.92.37,1.29,1.1a3.39,3.39,0,0,1-.07,3.14,8.88,8.88,0,0,1-1.29,1.51c-2.1,1.84-7,1.25-9.1.66a12.57,12.57,0,0,1-5.71-3.17,23.78,23.78,0,0,1-4-5.38,52.47,52.47,0,0,1-3.42-8c-.89,3.42-1.92,6.85-3.06,10.2C256,108.61,251.84,115.94,249.93,115.94Z"/><path class="cls-1" d="M354.58,148a2.67,2.67,0,0,1-1.92-1.88,24.16,24.16,0,0,1-1-3.87,35.67,35.67,0,0,1-.52-4.34c-.07-1.4-.15-2.47-.15-3.1v-2.54c0-1,.08-2.47.23-4.46s.33-4.56.58-7.73.63-7.3,1.15-12.34c-.15-.11-.52-.41-1.59-1.11s-2.61-1.77-4.31-2.94-3.64-2.66-5.23-3.87c-3.46-2.65-5.38-6-5.38-8a2.13,2.13,0,0,1,.23-1A1.84,1.84,0,0,1,338,89.71a1.88,1.88,0,0,1,1.63.48c2,1.73,4.3,3.68,6.92,5.82,2.43,1.95,4.86,3.8,7.18,5.42.22-1.55.56-3.8,1.07-6.6q.83-4.8,1.77-10.39l1.73-10.75c.44-2.76,2.4-13,3.54-14.59a2.6,2.6,0,0,1,1.47-1.18,3.25,3.25,0,0,1,2.51.26A2.53,2.53,0,0,1,367,60a6.75,6.75,0,0,1,0,2.28v.18c-1.14,5.93-2.18,11.75-3.13,17.35q-.68,3.54-1.33,7.41c-.44,2.54-.85,5.08-1.25,7.55s-.74,4.86-1,7.07-.56,4.24-.7,6c-.37,2.8-.63,6-.81,9.54s-.34,7-.52,10.17c-.15,3.68-.26,7.51-.26,11.38v.3c.11,4.56-.4,7.25-1.62,8.28A2.07,2.07,0,0,1,354.58,148Z"/><path class="cls-1" d="M103.54,76.38a4.77,4.77,0,0,1-3.09-3.61,3,3,0,0,1,0-.59,4.22,4.22,0,0,1,.92-2.51,6,6,0,0,1,4.46-2.06c5-.29,7.66.63,8.14,2.8.37,1.58-1.14,4-4.64,5.45A9,9,0,0,1,103.54,76.38Z"/><path class="cls-1" d="M298.59,116.38a3,3,0,0,1-2.84-1.95c-.55-1.29-.92-2.47-1.29-3.61-.15-.44-.29-.88-.44-1.29-.52-1.51-1-3.09-1.36-4.68l-1.26-5c-.44-1.73-.95-3.68-1.54-5.71-1-3.35-1.95-6.93-3-10.94-1-3.83-2-7.55-2.88-11.09s-1.58-6.74-2.1-9.43a38.06,38.06,0,0,1-.77-5.89c0-3.5.7-6,1.44-7a2.17,2.17,0,0,1,1.8-1c1,0,1.33.85,1.81,2.21s.95,3,1.36,4.53.7,3.1,1,4.61a21,21,0,0,1,.48,2.35c.33,1.85.74,4,1.22,6.27s1,4.64,1.51,7,1.1,4.6,1.69,6.7a34.84,34.84,0,0,0,1.44,4.24,23.27,23.27,0,0,1,.73-2.62,45.74,45.74,0,0,1,2.1-5.41c.89-1.92,1.88-3.91,2.95-6a60.58,60.58,0,0,1,3.43-5.6,23.27,23.27,0,0,1,3.57-4.09,5.64,5.64,0,0,1,3.57-1.66,7,7,0,0,1,3.69.7A2.22,2.22,0,0,1,316.05,64c0,.44-.26,1.22-2.32,3.32a56.24,56.24,0,0,0-4.94,6A46.12,46.12,0,0,0,303.85,82a25.38,25.38,0,0,0-2.17,10.31A6.54,6.54,0,0,0,303,96.9,7.73,7.73,0,0,0,306,99.22a20.41,20.41,0,0,0,4.5,1.62,22.58,22.58,0,0,0,4.93.55c1.51,0,3.13,0,4.83-.11l4.86-.33c1.55-.15,2.84-.26,3.94-.33s1.77-.15,2.06-.15a2.42,2.42,0,0,1,1.4.48,1.88,1.88,0,0,1,.67,1.62,2.9,2.9,0,0,1-.26,1.54,2.57,2.57,0,0,1-1.59,1c-.81.25-1.8.51-2.94.84s-2.47.59-3.87.89-2.84.59-4.27.81a27,27,0,0,1-4.06.33,46.1,46.1,0,0,1-4.93-.26,37.94,37.94,0,0,1-5.19-.88,40.08,40.08,0,0,1-4.57-1.29,9.61,9.61,0,0,1-2.18-1.11c.34,1.48.63,3,.93,4.42.33,1.81.58,3.65.77,5.49v0a2.23,2.23,0,0,1-.41,1.32C300.32,116.23,299.62,116.27,298.59,116.38Z"/><path class="cls-1" d="M128.45,171.34a3.82,3.82,0,0,0-2.29-.63,5.34,5.34,0,0,0-2.54.63,5.55,5.55,0,0,0-1.84,1.73,4.27,4.27,0,0,0-.67,2.32v10.17a1.95,1.95,0,0,1-1.87,1.91,1.84,1.84,0,0,1-1.33-.59,1.92,1.92,0,0,1-.52-1.32V169.42a2,2,0,0,1,.52-1.36,1.8,1.8,0,0,1,1.33-.55,1.82,1.82,0,0,1,1.36.55,2,2,0,0,1,.51,1.36V170a7.26,7.26,0,0,1,.93-.89,8.18,8.18,0,0,1,2.24-1.36,7.11,7.11,0,0,1,2.65-.52,6.85,6.85,0,0,1,4.35,1.37,6.56,6.56,0,0,1,1.7,2.24,7.28,7.28,0,0,1,1.14-1.29,10.16,10.16,0,0,1,2.58-1.65,7.38,7.38,0,0,1,3.09-.67,6.88,6.88,0,0,1,4.09,1.15,6.33,6.33,0,0,1,2.14,3,13.06,13.06,0,0,1,.62,4.09v10.13a1.91,1.91,0,0,1-.51,1.32,1.86,1.86,0,0,1-1.37.59,1.77,1.77,0,0,1-1.32-.59,1.79,1.79,0,0,1-.56-1.32V175.5a7.8,7.8,0,0,0-.36-2.47,3.61,3.61,0,0,0-1.26-1.69,4,4,0,0,0-2.35-.63,5.09,5.09,0,0,0-2.58.67,5.24,5.24,0,0,0-1.88,1.73,4.54,4.54,0,0,0-.7,2.39v10.06a1.89,1.89,0,0,1-.48,1.32,1.86,1.86,0,0,1-1.36.59,1.81,1.81,0,0,1-1.84-1.91V175.39a6.88,6.88,0,0,0-.41-2.39A3.5,3.5,0,0,0,128.45,171.34Z"/><path class="cls-1" d="M166.05,186.48a9.78,9.78,0,0,0,3.58-3.72,11.1,11.1,0,0,0,1.29-5.34,11.3,11.3,0,0,0-1.29-5.34,9.77,9.77,0,0,0-8.7-5.05,10,10,0,0,0-5.08,1.36,9.91,9.91,0,0,0-3.61,3.69,10.87,10.87,0,0,0-1.33,5.34,10.68,10.68,0,0,0,1.33,5.34,9.78,9.78,0,0,0,3.61,3.72,10.24,10.24,0,0,0,10.2,0Zm-11.38-9.06a7.36,7.36,0,0,1,.81-3.58,6.3,6.3,0,0,1,2.29-2.43,6.2,6.2,0,0,1,6.37,0,6.28,6.28,0,0,1,2.25,2.43,7.48,7.48,0,0,1,.84,3.58,7.6,7.6,0,0,1-.84,3.61,6.57,6.57,0,0,1-2.25,2.43,6.2,6.2,0,0,1-6.37,0,6.6,6.6,0,0,1-2.29-2.43A7.6,7.6,0,0,1,154.67,177.42Z"/><path class="cls-1" d="M178.43,186.88a1.84,1.84,0,0,1-1.33.59,1.71,1.71,0,0,1-1.32-.59,1.78,1.78,0,0,1-.55-1.32V169.42a1.82,1.82,0,0,1,.55-1.36,1.8,1.8,0,0,1,1.32-.55,1.69,1.69,0,0,1,1.33.55,2,2,0,0,1,.52,1.36v.52a8.54,8.54,0,0,1,3.5-2.39,7.34,7.34,0,0,1,2.68-.52,7.14,7.14,0,0,1,4.2,1.1,6,6,0,0,1,2.21,3,12.34,12.34,0,0,1,.63,4v10.39a1.78,1.78,0,0,1-.55,1.32,1.71,1.71,0,0,1-1.29.59,1.79,1.79,0,0,1-1.36-.59,1.88,1.88,0,0,1-.52-1.32V175.24a6.4,6.4,0,0,0-.41-2.43,3.35,3.35,0,0,0-1.28-1.65,4.34,4.34,0,0,0-2.47-.63,6,6,0,0,0-2.69.63,5.83,5.83,0,0,0-1.95,1.73,4.34,4.34,0,0,0-.7,2.35v10.32A1.92,1.92,0,0,1,178.43,186.88Z"/><path class="cls-1" d="M204.22,187.47a8.66,8.66,0,0,1-1.33-.11,4.09,4.09,0,0,1-1.66-.51,3.56,3.56,0,0,1-1.4-1.51,6.48,6.48,0,0,1-.51-2.8V171.12h-2a1.83,1.83,0,0,1-1.25-.52,1.66,1.66,0,0,1-.52-1.21,1.64,1.64,0,0,1,.55-1.26,1.69,1.69,0,0,1,1.22-.51h2v-3.13a1.86,1.86,0,0,1,.55-1.36,1.81,1.81,0,0,1,1.32-.56,1.69,1.69,0,0,1,1.29.59,1.78,1.78,0,0,1,.52,1.33v3.13h3a1.63,1.63,0,0,1,1.25.55,1.81,1.81,0,0,1,0,2.47,1.9,1.9,0,0,1-1.25.48h-3v11.27a2.19,2.19,0,0,0,.22,1.14.87.87,0,0,0,.52.44,1.49,1.49,0,0,0,.7.15,1.09,1.09,0,0,0,.48-.11,1.86,1.86,0,0,1,.81-.15,1.22,1.22,0,0,1,1,.48,1.73,1.73,0,0,1,.41,1.14,1.76,1.76,0,0,1-1,1.48A3.82,3.82,0,0,1,204.22,187.47Z"/><path class="cls-1" d="M213.76,187.47a1.71,1.71,0,0,1-1.33-.59,1.78,1.78,0,0,1-.55-1.32V169.42a1.82,1.82,0,0,1,.55-1.36,1.69,1.69,0,0,1,1.33-.55,1.74,1.74,0,0,1,1.32.55,2,2,0,0,1,.52,1.36v1.07a7.32,7.32,0,0,1,1.18-1.47,6.43,6.43,0,0,1,2.17-1.44,6.29,6.29,0,0,1,2.65-.55,3.39,3.39,0,0,1,1.7.44,1.56,1.56,0,0,1,.88,1.44,2,2,0,0,1-.52,1.43,1.87,1.87,0,0,1-1.17.48,2.27,2.27,0,0,1-1.11-.25,2.33,2.33,0,0,0-1-.19,3.16,3.16,0,0,0-1.65.48,5.75,5.75,0,0,0-1.59,1.33,7.37,7.37,0,0,0-1.14,2,6.1,6.1,0,0,0-.44,2.35v9a1.92,1.92,0,0,1-.52,1.32A1.84,1.84,0,0,1,213.76,187.47Z"/><path class="cls-1" d="M234.64,166.77a1.2,1.2,0,0,1-.74-.33.94.94,0,0,1-.4-.81v-.11a1.52,1.52,0,0,1,.22-.74l2.25-3.64a3.11,3.11,0,0,1,.7-.81,1.71,1.71,0,0,1,1.14-.41,1.66,1.66,0,0,1,1.84,1.77,2.25,2.25,0,0,1-.18.7,2,2,0,0,1-.37.62l-2.84,3.06a2.52,2.52,0,0,1-.73.52A2.57,2.57,0,0,1,234.64,166.77Z"/><path class="cls-1" d="M239.69,186.92a8.65,8.65,0,0,0,2.91-2,1.67,1.67,0,0,0-.89-3.09,2,2,0,0,0-1.21.48,6.38,6.38,0,0,1-1.14,1,6.3,6.3,0,0,1-1.55.81,7.55,7.55,0,0,1-2.17.29,6.27,6.27,0,0,1-5.71-3.31,7.79,7.79,0,0,1-.78-2.69h13.08a2.09,2.09,0,0,0,1.29-.48,1.84,1.84,0,0,0,.59-1.29,10.61,10.61,0,0,0-.81-3.94,10.18,10.18,0,0,0-2.07-3,8.79,8.79,0,0,0-2.94-1.95,9.26,9.26,0,0,0-3.46-.66,9,9,0,0,0-4.54,1.25,9.52,9.52,0,0,0-3.49,3.65,11.51,11.51,0,0,0-1.33,5.71,10.71,10.71,0,0,0,1.29,5.27,10,10,0,0,0,3.61,3.61,10.73,10.73,0,0,0,5.38,1.32A9,9,0,0,0,239.69,186.92ZM229.37,175c.08-.29.15-.55.23-.81a6.17,6.17,0,0,1,1.32-2.1,5.24,5.24,0,0,1,1.84-1.18,5.9,5.9,0,0,1,2.07-.36,5.7,5.7,0,0,1,2.46.55,5.88,5.88,0,0,1,2,1.58,4.61,4.61,0,0,1,.92,2.32Z"/><path class="cls-1" d="M259.54,187.25a8.31,8.31,0,0,0,2.36-1.43,5.43,5.43,0,0,0,.77-.74v.48a1.92,1.92,0,0,0,.52,1.32,1.79,1.79,0,0,0,1.36.59,1.69,1.69,0,0,0,1.29-.59,1.78,1.78,0,0,0,.55-1.32V169.2a1.93,1.93,0,0,0-.51-1.32,1.75,1.75,0,0,0-1.33-.56,1.77,1.77,0,0,0-1.36.56,1.94,1.94,0,0,0-.52,1.32v.44a4,4,0,0,0-.59-.58,8,8,0,0,0-2.5-1.48,8.53,8.53,0,0,0-3.1-.55,8.69,8.69,0,0,0-4.67,1.36,9.52,9.52,0,0,0-3.28,3.65,12.3,12.3,0,0,0,0,10.68,10,10,0,0,0,3.28,3.72,8.6,8.6,0,0,0,4.79,1.4A7.87,7.87,0,0,0,259.54,187.25ZM251,177.38a8,8,0,0,1,.77-3.54,6.24,6.24,0,0,1,2.1-2.43,5.76,5.76,0,0,1,6.12,0,6.31,6.31,0,0,1,2.13,2.47,8.24,8.24,0,0,1,.74,3.5,8.43,8.43,0,0,1-.74,3.57,6.16,6.16,0,0,1-2.13,2.51,5.76,5.76,0,0,1-6.12,0,6.8,6.8,0,0,1-2.1-2.51A8,8,0,0,1,251,177.38Z"/><path class="cls-1" d="M274,187.47a1.76,1.76,0,0,1-1.33-.59,1.78,1.78,0,0,1-.55-1.32V161.14a1.8,1.8,0,0,1,.55-1.33,1.83,1.83,0,0,1,1.37-.55,1.8,1.8,0,0,1,1.32.55,2.1,2.1,0,0,1,.52,1.33v24.42a1.79,1.79,0,0,1-.56,1.32A1.87,1.87,0,0,1,274,187.47Z"/><path class="cls-2" d="M105.2,178.14H6.67a4.71,4.71,0,0,1-4.83-4.57V6.41A4.71,4.71,0,0,1,6.67,1.84H385.76a4.71,4.71,0,0,1,4.83,4.57V173.57a4.71,4.71,0,0,1-4.83,4.57H288.67"/></g></g></svg>