<svg width="0" height="0" class="hidden">
  <symbol xmlns="http://www.w3.org/2000/svg" viewBox="0 0 179.73 179.73" id="facebook">
    <defs></defs>
    <title>facebook</title>
    <g id="Layer_2">
      <g id="Layer_1-2">
        <path d="M179.13,52A52,52,0,0,0,127.7.6L90,0h-.14L52,.6A52,52,0,0,0,.59,52L0,89.74v.13L.59,127.7A52,52,0,0,0,52,179.14l7.33.11V103.84H45.72a3.44,3.44,0,0,1-3.4-3.49V83a3.45,3.45,0,0,1,3.4-3.49H59.36V63.08c0-7.21.19-18.35,5.49-25.25,12.4-16.2,37.57-12,47-9.76a4.52,4.52,0,0,1,3.37,4.83l-1.45,16.35a3.08,3.08,0,0,1-3.38,2.84c-1.56-.18-3.75-.39-6.59-.56C89.85,50.71,86,55.08,86,61.64V79.46h20.56a4.21,4.21,0,0,1,4.12,4.59l-1.24,15.88a4.17,4.17,0,0,1-4.12,3.91H85.76v75.83l4,.06h.13l37.84-.6a52,52,0,0,0,51.43-51.43l.59-37.7v-.13Z"></path>
      </g>
    </g>
  </symbol>
  <symbol xmlns="http://www.w3.org/2000/svg" viewBox="0 0 179.73 179.72" id="instagram">
    <title>instagram</title>
    <g id="Layer_2">
      <g id="Layer_1-2">
        <path d="M179.58,80.52,179.13,52A52,52,0,0,0,127.7.59L90,0h-.14L52,.59A52,52,0,0,0,.59,52L.15,80.52,0,89.73v.13l.59,37.83A52,52,0,0,0,52,179.13l37.7.59h.13l37.84-.59a52,52,0,0,0,51.43-51.44l.59-37.7v-.13ZM140.29,25.85A13.6,13.6,0,1,1,126.7,39.44,13.59,13.59,0,0,1,140.29,25.85ZM60.85,80.52a30.16,30.16,0,0,1,57.36,0,29.76,29.76,0,0,1,1.49,9.34,30.17,30.17,0,1,1-60.34,0A29.76,29.76,0,0,1,60.85,80.52Zm98.29,46.86a32.24,32.24,0,0,1-31.67,31.75l-37.61.59-37.52-.59a32.23,32.23,0,0,1-31.75-31.66L20,89.87l.14-9.35H40.23a50.17,50.17,0,1,0,99.47,9.34,49.63,49.63,0,0,0-.88-9.34h20.75l.15,9.31Z"></path>
      </g>
    </g>
  </symbol>
  <symbol xmlns="http://www.w3.org/2000/svg" viewBox="0 0 179.72 179.72" id="phone">
    <defs></defs>
    <title>phone</title>
    <g id="Layer_2">
      <g id="Layer_1-2">
        <path d="M179.13,52A52,52,0,0,0,127.69.59L90,0h-.13L52,.59A52,52,0,0,0,.59,52L0,89.73v.13L.59,127.7A52,52,0,0,0,52,179.13l37.7.59h.13l37.84-.59a52,52,0,0,0,51.43-51.44l.59-37.7v-.13Zm-28.94,93.33a7.89,7.89,0,0,1-2.23,5.7,7.44,7.44,0,0,1-5.6,2.31q-19.94,0-40-10.23A142.33,142.33,0,0,1,66,116.71,141.26,141.26,0,0,1,39.68,80.5Q29.6,60.61,29.54,40.8a8.25,8.25,0,0,1,2.14-5.69,7.45,7.45,0,0,1,5.69-2.39H57.65a6.88,6.88,0,0,1,4.81,1.78,9.13,9.13,0,0,1,2.67,4.8l4.27,19a12.89,12.89,0,0,1-.18,4.81,6.92,6.92,0,0,1-2.14,3.56L56.48,77.08a10.62,10.62,0,0,0-1.43,13.46,139.5,139.5,0,0,0,18,22,127.21,127.21,0,0,0,21.26,16.85,10.6,10.6,0,0,0,13.3-1.67l10.19-10.64a9.9,9.9,0,0,1,4-2.76,8.46,8.46,0,0,1,4.72-.27L143.78,118a7.62,7.62,0,0,1,4.63,2.67,7.76,7.76,0,0,1,1.78,5.16Z"></path>
      </g>
    </g>
  </symbol>
  <symbol xmlns="http://www.w3.org/2000/svg" viewBox="0 0 179.73 179.73" id="pinterest">
    <defs></defs>
    <title>pinterest</title>
    <g id="Layer_2">
      <g id="Layer_1-2">
        <path d="M179.13,52A52,52,0,0,0,127.7.6L90,0h-.13L52,.6A52,52,0,0,0,.59,52L0,89.74v.13L.59,127.7a52,52,0,0,0,48,51.28c-.39-7-.31-15.94,1.58-23.93C52,147.27,62.47,102.9,62.47,102.9a36.83,36.83,0,0,1-3-15.14C59.42,73.57,67.64,63,77.87,63c8.71,0,12.91,6.54,12.91,14.37,0,8.76-5.57,21.84-8.45,34-2.4,10.15,5.09,18.44,15.1,18.44,18.14,0,30.35-23.3,30.35-50.89,0-21-14.13-36.68-39.83-36.68-29,0-47.11,21.66-47.11,45.84,0,8.34,2.46,14.22,6.31,18.77,1.77,2.09,2,2.93,1.38,5.33-.47,1.77-1.51,6-2,7.69a3.3,3.3,0,0,1-4.79,2.39c-13.36-5.45-19.6-20.1-19.6-36.56,0-27.18,22.93-59.79,68.41-59.79,36.54,0,60.58,26.44,60.58,54.83,0,37.54-20.87,65.59-51.64,65.59-10.33,0-20-5.59-23.38-11.93,0,0-5.55,22-6.73,26.31A76.92,76.92,0,0,1,61,179.28l28.78.45h.14l37.83-.6a52,52,0,0,0,51.43-51.43l.6-37.7v-.13Z"></path>
      </g>
    </g>
  </symbol>
  <symbol xmlns="http://www.w3.org/2000/svg" viewBox="0 0 179.72 179.72" id="email">
    <title>email</title>
    <g id="Layer_2">
      <g id="Layer_1-2">
        <path d="M179.13,52A52,52,0,0,0,127.69.59L90,0h-.13L52,.59A52,52,0,0,0,.59,52L0,89.73v.13L.59,127.7A52,52,0,0,0,52,179.13l37.7.59h.13l37.84-.59a52,52,0,0,0,51.43-51.44l.59-37.7v-.13ZM42.52,47.15H137.2A11.38,11.38,0,0,1,147.79,55L109.7,83.74l-.48.37L93.61,95.88a5.89,5.89,0,0,1-7.49,0L70.5,84.11,70,83.74,31.93,55A11.39,11.39,0,0,1,42.52,47.15ZM31.2,62.49,65,88,31.2,116.75Zm106,70.08H42.52a11.48,11.48,0,0,1-10.9-8.85l38-32.29L82.26,101a12.19,12.19,0,0,0,15.2,0l12.67-9.56,38,32.28A11.48,11.48,0,0,1,137.2,132.57Zm11.33-15.82L114.7,88l33.83-25.5Z"></path>
      </g>
    </g>
  </symbol>
</svg>