<svg xmlns="http://www.w3.org/2000/svg" viewBox="0 0 145.47 451.38"><defs><style>.cls-1{fill:#721d1d;}.cls-2{fill:#bf2e2e;}.cls-3{fill:#fff;}</style></defs><title>mesuring_tape</title><g id="Layer_2" data-name="Layer 2"><g id="Layer_6" data-name="Layer 6"><path class="cls-1" d="M132,373.06c7,10.36,9.76,21.1,6.34,33.42-3.64,13.17-13.46,22.3-23.87,30.55s-21.72,13.63-35.1,14.28S53,447.75,41.79,440.61C19.17,426.2-.4,399.15,0,371.49a51.93,51.93,0,0,1,11.77-32c5.06-6.16,11.39-11.49,17.73-16.27,5.27-4,10.81-7.39,17.23-9.13,13.88-3.77,28.35-.48,42.37-2.85a59.87,59.87,0,0,0,16.25-5.14,15.06,15.06,0,0,0,1.44-.82,29.63,29.63,0,0,0,3.07-5.38c5.44-13.08-1.28-26.29-9.45-36.5-9.65-12.06-20.86-23.12-32-33.79-9.18-8.78-22.82-18.18-24.89-31.69-2-13.1,9.39-22,18.54-29.22a61.45,61.45,0,0,1,31.11-13c11.44-1.44,23.12-1,34.08-5.14a21.91,21.91,0,0,0,2-6.82c.89-7-1.24-14.11-4.29-20.38-6.36-13.08-16.93-24-26.72-34.54-19.06-20.55-40.89-45-36.44-75.3.4-2.74,5.5-5.85,7.43-7.47a70.73,70.73,0,0,1,5.82-4.52S78-.26,77.9,0c-4.83,33,20.9,58.21,41.17,80.41,10.34,11.32,22.19,24.12,25.66,39.54,3.58,15.88-6.31,25.83-17.81,35-9.61,7.64-19.64,11.29-31.78,12.7-10.54,1.22-21,1.1-31.19,4.64-1,.35-1.93.74-2.86,1.17a12.17,12.17,0,0,0-.51,1.17c-2.13,5.5-1.25,11.58,1.32,16.77,5.82,11.77,18.1,20.24,27.29,29.26,10.58,10.39,21.74,21.11,30.35,33.24,6.84,9.64,10.93,21.3,6.41,32.8-4.63,11.72-17,20.92-27,27.74a63.24,63.24,0,0,1-29.46,10.79c-14.39,1.41-29.67-1.89-43.34,4.14l-.6.26c-.24.29-.47.58-.68.87a47,47,0,0,0-4.19,7.33,50.06,50.06,0,0,0-4.32,15.92c-2.65,26.65,14.78,52.94,35,68.72,10.32,8.06,22.65,13.89,35.78,15.14a55.63,55.63,0,0,0,20.54-1.83,48.3,48.3,0,0,0,8.37-3.24l.15-.08h0c.1-.12.19-.25.28-.37,6.66-9.45,9.19-22,5.93-33.19-1.8-6.15-5.8-10.77-9-16.21-2.64-4.54-4.42-9.44-1.11-14.08,2.46-3.44,6.21-6.21,9.47-8.81,1.28-1,3.43-3.07,5.06-3.69,0-.05,2-1.17,1.31-.13C124.12,361.66,128.74,368.19,132,373.06Z"/><path class="cls-2" d="M137,145.88c-3.13,2.11-6.34,4-10.08,4.82l.36-.13c.13-.28.26-.55.38-.83h0a17.56,17.56,0,0,0,.66-1.7h0a21.71,21.71,0,0,0,.93-3.9c0-.12,0-.25.05-.37,0-.33.08-.65.1-1h0a25.29,25.29,0,0,0,.08-3.37c0-.39,0-.78-.07-1.17-.08-1-.21-2.06-.39-3.08l-.21-1.08c-.28-1.29-.62-2.57-1-3.83l-.33-1a49.73,49.73,0,0,0-2-4.9l-.43-.93,0,0c-.9-1.86-1.89-3.67-3-5.44-.17-.29-.34-.57-.52-.85h0c-1.37-2.25-2.86-4.43-4.43-6.56-.2-.27-.39-.54-.6-.81-1.47-2-3-3.88-4.59-5.77l-.64-.77c-1.68-2-3.4-3.92-5.15-5.84-.22-.25-.44-.5-.67-.74q-3.14-3.43-6.28-6.79l-.68-.73-.21-.23c-2-2.2-4.11-4.44-6.18-6.73l-.67-.75q-2.84-3.16-5.62-6.43l-.65-.77q-2.58-3.08-5-6.26l-.61-.8c-2-2.67-4-5.4-5.76-8.2-.19-.28-.37-.56-.55-.84-1.7-2.68-3.27-5.43-4.68-8.23-.16-.3-.31-.6-.45-.91a73.31,73.31,0,0,1-3.63-8.77c-.12-.33-.23-.66-.33-1A59,59,0,0,1,62,30.39c-.06-.36-.12-.73-.17-1.1a53.18,53.18,0,0,1-.55-8.69q0-.63,0-1.26a53,53,0,0,1,.54-5.81c.4-2.74,5.5-5.85,7.43-7.47a70.73,70.73,0,0,1,5.82-4.52S78-.26,77.9,0c-4.83,33,20.9,58.21,41.17,80.41,10.34,11.32,22.19,24.12,25.66,39.54C147.18,130.84,143.33,138.92,137,145.88Z"/><path class="cls-2" d="M126,286.72a36.85,36.85,0,0,1-5.49,9.24,71.39,71.39,0,0,1-13.55,9.29l0,0s0,0,0-.05a33.48,33.48,0,0,0,2.23-3.62c.29-.55.56-1.11.8-1.7l0-.12h0a26,26,0,0,0,1.18-3.56c.11-.49.22-1,.31-1.46a25.84,25.84,0,0,0,.43-4.7h0q0-.6,0-1.2h0a28.33,28.33,0,0,0-.72-5.18h0c-.07-.35-.15-.69-.25-1a37.52,37.52,0,0,0-1.71-5.05c-.13-.31-.27-.62-.41-.93a50.14,50.14,0,0,0-2.67-5.14l-.52-.86h0c-1-1.71-2.19-3.37-3.39-5l-.59-.81c-.38-.48-.75-1-1.13-1.43q-1.28-1.6-2.61-3.18c-.2-.26-.42-.51-.63-.77q-1.89-2.25-3.86-4.46l-.67-.76q-2.37-2.66-4.82-5.25l-.68-.73c-1.63-1.71-3.27-3.41-4.94-5.1-.23-.24-.46-.48-.71-.72q-2.62-2.67-5.3-5.28l-.73-.71q-2.19-2.15-4.39-4.26l-.73-.7-1.94-1.87c-1.2-1.15-2.49-2.32-3.81-3.5l-.76-.68c-1.74-1.55-3.54-3.13-5.31-4.77l-.75-.69A82.57,82.57,0,0,1,52,214.1c-.23-.25-.45-.5-.66-.76a41.67,41.67,0,0,1-4.22-5.81c-.17-.28-.34-.57-.5-.87a27.76,27.76,0,0,1-2.3-5.35c-.11-.34-.21-.68-.29-1a20.68,20.68,0,0,1-.49-2.34,19.06,19.06,0,0,1-.2-4c0-.44,0-.88.11-1.32a20.16,20.16,0,0,1,2.17-6.9,23,23,0,0,1,1.2-2.09c3.75-5.91,9.89-10.72,15.26-14.95,1.79-1.4,3.6-2.69,5.46-3.87A24.47,24.47,0,0,0,61.26,173a1.58,1.58,0,0,0-.12.5l0,0a12.17,12.17,0,0,0-.51,1.17c-2.13,5.5-1.25,11.58,1.32,16.77,5.82,11.77,18.1,20.24,27.29,29.26,10.58,10.39,21.74,21.11,30.35,33.24C126.38,263.56,130.47,275.22,126,286.72Z"/><path class="cls-2" d="M124.19,428.65c-3,3-6.35,5.71-9.71,8.38a70,70,0,0,1-18.3,10.73l0,0c-1.06.4-2.13.78-3.22,1.11h0a52.68,52.68,0,0,1-7.56,1.8h0c-.69.11-1.37.2-2.07.29-1.27.15-2.56.26-3.87.32-.93.05-1.86.07-2.79.07-.56,0-1.12,0-1.67,0a59.3,59.3,0,0,1-6.53-.57c-.46-.07-.93-.14-1.39-.23a59.43,59.43,0,0,1-8-1.91c-.4-.12-.8-.24-1.19-.38a67,67,0,0,1-6.92-2.7l-1-.49a73,73,0,0,1-7-3.8l-.91-.57-.14-.09q-2.79-1.77-5.51-3.81c-.28-.2-.56-.41-.83-.63q-2.87-2.18-5.6-4.61l-.77-.68q-2.77-2.52-5.39-5.28l-.69-.74c-1.73-1.85-3.39-3.78-5-5.77l-.62-.79q-2.49-3.19-4.7-6.58l-.54-.84c-1.54-2.43-3-4.93-4.26-7.48-.15-.31-.31-.61-.45-.91A75.05,75.05,0,0,1,4.24,395h0c-.07-.17-.13-.32-.19-.49s-.12-.33-.17-.49a62.32,62.32,0,0,1-2.08-7c-.05-.17-.09-.35-.13-.52l-.12-.54a59.81,59.81,0,0,1-1.23-7.5l-.06-.56c0-.2,0-.39-.05-.59Q0,374.38,0,371.49c0-.7,0-1.4.08-2.09,0-.22,0-.43,0-.65s0-.43.06-.65h0A46.52,46.52,0,0,1,1,362.44c0-.24.09-.47.14-.71s.11-.5.17-.75a47.27,47.27,0,0,1,1.78-6.06c.09-.28.19-.55.3-.83s.22-.58.35-.87h0a47.29,47.29,0,0,1,2.28-5H6c.37-.7.75-1.38,1.16-2.07.65-1.12,1.34-2.21,2.08-3.27.62-.91,1.28-1.79,2-2.65.19-.25.39-.5.59-.74,5.06-6.16,11.39-11.49,17.73-16.27,1.91-1.44,3.85-2.8,5.86-4-1.43,1.46-3,2.77-4.49,4.19a41.6,41.6,0,0,0-5.32,6.23v0h0c-.24.29-.47.58-.68.87a47,47,0,0,0-4.19,7.33,50.06,50.06,0,0,0-4.32,15.92c-2.65,26.65,14.78,52.94,35,68.72,10.32,8.06,22.65,13.89,35.78,15.14a55.63,55.63,0,0,0,20.54-1.83,48.3,48.3,0,0,0,8.37-3.24l.15-.08h0l0-.06a1.74,1.74,0,0,0,.34-.12A70.8,70.8,0,0,0,124.19,428.65Z"/><path class="cls-2" d="M137,145.88c-3.13,2.11-6.34,4-10.08,4.82l.36-.13c.13-.28.26-.55.38-.83h0a17.56,17.56,0,0,0,.66-1.7h0a21.71,21.71,0,0,0,.93-3.9c0-.12,0-.25.05-.37,0-.33.08-.65.1-1h0a25.29,25.29,0,0,0,.08-3.37c0-.39,0-.78-.07-1.17-.08-1-.21-2.06-.39-3.08l-.21-1.08c-.28-1.29-.62-2.57-1-3.83l-.33-1a49.73,49.73,0,0,0-2-4.9l-.43-.93,0,0c-.9-1.86-1.89-3.67-3-5.44-.17-.29-.34-.57-.52-.85h0c-1.37-2.25-2.86-4.43-4.43-6.56-.2-.27-.39-.54-.6-.81-1.47-2-3-3.88-4.59-5.77l-.64-.77c-1.68-2-3.4-3.92-5.15-5.84-.22-.25-.44-.5-.67-.74q-3.14-3.43-6.28-6.79l-.68-.73-.21-.23c-2-2.2-4.11-4.44-6.18-6.73l-.67-.75q-2.84-3.16-5.62-6.43l-.65-.77q-2.58-3.08-5-6.26l-.61-.8c-2-2.67-4-5.4-5.76-8.2-.19-.28-.37-.56-.55-.84-1.7-2.68-3.27-5.43-4.68-8.23-.16-.3-.31-.6-.45-.91a73.31,73.31,0,0,1-3.63-8.77c-.12-.33-.23-.66-.33-1A59,59,0,0,1,62,30.39c-.06-.36-.12-.73-.17-1.1a53.18,53.18,0,0,1-.55-8.69q0-.63,0-1.26a53,53,0,0,1,.54-5.81c.4-2.74,5.5-5.85,7.43-7.47a70.73,70.73,0,0,1,5.82-4.52S78-.26,77.9,0c-4.83,33,20.9,58.21,41.17,80.41,10.34,11.32,22.19,24.12,25.66,39.54C147.18,130.84,143.33,138.92,137,145.88Z"/><path class="cls-2" d="M124.19,428.65c-3,3-6.35,5.71-9.71,8.38a70,70,0,0,1-18.3,10.73l0,0c-1.06.4-2.13.78-3.22,1.11h0a52.68,52.68,0,0,1-7.56,1.8h0c-.69.11-1.37.2-2.07.29-1.27.15-2.56.26-3.87.32-.93.05-1.86.07-2.79.07-.56,0-1.12,0-1.67,0a59.3,59.3,0,0,1-6.53-.57c-.46-.07-.93-.14-1.39-.23a59.43,59.43,0,0,1-8-1.91c-.4-.12-.8-.24-1.19-.38a67,67,0,0,1-6.92-2.7l-1-.49a73,73,0,0,1-7-3.8l-.91-.57-.14-.09q-2.79-1.77-5.51-3.81c-.28-.2-.56-.41-.83-.63q-2.87-2.18-5.6-4.61l-.77-.68q-2.77-2.52-5.39-5.28l-.69-.74c-1.73-1.85-3.39-3.78-5-5.77l-.62-.79q-2.49-3.19-4.7-6.58l-.54-.84c-1.54-2.43-3-4.93-4.26-7.48-.15-.31-.31-.61-.45-.91A75.05,75.05,0,0,1,4.24,395h0c-.07-.17-.13-.32-.19-.49s-.12-.33-.17-.49a62.32,62.32,0,0,1-2.08-7c-.05-.17-.09-.35-.13-.52l-.12-.54a59.81,59.81,0,0,1-1.23-7.5l-.06-.56c0-.2,0-.39-.05-.59Q0,374.38,0,371.49c0-.7,0-1.4.08-2.09,0-.22,0-.43,0-.65s0-.43.06-.65h0A46.52,46.52,0,0,1,1,362.44c0-.24.09-.47.14-.71s.11-.5.17-.75a47.27,47.27,0,0,1,1.78-6.06c.09-.28.19-.55.3-.83s.22-.58.35-.87h0a47.29,47.29,0,0,1,2.28-5H6c.37-.7.75-1.38,1.16-2.07.65-1.12,1.34-2.21,2.08-3.27.62-.91,1.28-1.79,2-2.65.19-.25.39-.5.59-.74,5.06-6.16,11.39-11.49,17.73-16.27,1.91-1.44,3.85-2.8,5.86-4-1.43,1.46-3,2.77-4.49,4.19a41.6,41.6,0,0,0-5.32,6.23v0h0c-.24.29-.47.58-.68.87a47,47,0,0,0-4.19,7.33,50.06,50.06,0,0,0-4.32,15.92c-2.65,26.65,14.78,52.94,35,68.72,10.32,8.06,22.65,13.89,35.78,15.14a55.63,55.63,0,0,0,20.54-1.83,48.3,48.3,0,0,0,8.37-3.24l.15-.08h0l0-.06a1.74,1.74,0,0,0,.34-.12A70.8,70.8,0,0,0,124.19,428.65Z"/><path class="cls-2" d="M126,286.72a36.85,36.85,0,0,1-5.49,9.24,71.39,71.39,0,0,1-13.55,9.29l0,0s0,0,0-.05a33.48,33.48,0,0,0,2.23-3.62c.29-.55.56-1.11.8-1.7l0-.12h0a26,26,0,0,0,1.18-3.56c.11-.49.22-1,.31-1.46a25.84,25.84,0,0,0,.43-4.7h0q0-.6,0-1.2h0a28.33,28.33,0,0,0-.72-5.18h0c-.07-.35-.15-.69-.25-1a37.52,37.52,0,0,0-1.71-5.05c-.13-.31-.27-.62-.41-.93a50.14,50.14,0,0,0-2.67-5.14l-.52-.86h0c-1-1.71-2.19-3.37-3.39-5l-.59-.81c-.38-.48-.75-1-1.13-1.43q-1.28-1.6-2.61-3.18c-.2-.26-.42-.51-.63-.77q-1.89-2.25-3.86-4.46l-.67-.76q-2.37-2.66-4.82-5.25l-.68-.73c-1.63-1.71-3.27-3.41-4.94-5.1-.23-.24-.46-.48-.71-.72q-2.62-2.67-5.3-5.28l-.73-.71q-2.19-2.15-4.39-4.26l-.73-.7-1.94-1.87c-1.2-1.15-2.49-2.32-3.81-3.5l-.76-.68c-1.74-1.55-3.54-3.13-5.31-4.77l-.75-.69A82.57,82.57,0,0,1,52,214.1c-.23-.25-.45-.5-.66-.76a41.67,41.67,0,0,1-4.22-5.81c-.17-.28-.34-.57-.5-.87a27.76,27.76,0,0,1-2.3-5.35c-.11-.34-.21-.68-.29-1a20.68,20.68,0,0,1-.49-2.34,19.06,19.06,0,0,1-.2-4c0-.44,0-.88.11-1.32a20.16,20.16,0,0,1,2.17-6.9,23,23,0,0,1,1.2-2.09c3.75-5.91,9.89-10.72,15.26-14.95,1.79-1.4,3.6-2.69,5.46-3.87A24.47,24.47,0,0,0,61.26,173a1.58,1.58,0,0,0-.12.5l0,0a12.17,12.17,0,0,0-.51,1.17c-2.13,5.5-1.25,11.58,1.32,16.77,5.82,11.77,18.1,20.24,27.29,29.26,10.58,10.39,21.74,21.11,30.35,33.24C126.38,263.56,130.47,275.22,126,286.72Z"/><path class="cls-3" d="M71.05,23.82,62,30.39c-.06-.36-.12-.73-.17-1.1L70.47,23Z"/><path class="cls-3" d="M70.31,14,61.25,20.6q0-.63,0-1.26l8.44-6.11Z"/><path class="cls-3" d="M73.46,33.59l-9,6.55c-.12-.33-.23-.66-.33-1l8.78-6.36Z"/><path class="cls-3" d="M77.43,43.35,68.5,49.82c-.16-.3-.31-.6-.45-.91l8.8-6.37Z"/><path class="cls-3" d="M82.75,52.36l-9,6.53c-.19-.28-.37-.56-.55-.84l9-6.5Z"/><path class="cls-3" d="M89.1,61.37l-9,6.52-.61-.8,9-6.53Z"/><path class="cls-3" d="M94.71,68.47l-8.92,6.45-.65-.77,9-6.49Z"/><path class="cls-3" d="M101.11,75.56l-9,6.54-.67-.75,9.11-6.6Z"/><path class="cls-3" d="M108.09,83.32l-8.94,6.47-.68-.73,9-6.55Z"/><path class="cls-3" d="M115,90.89l-8.88,6.43c-.22-.25-.44-.5-.67-.74l9-6.5Z"/><path class="cls-3" d="M120.91,97.4l-9,6.53-.64-.77,9.07-6.56Z"/><path class="cls-3" d="M126.05,104l-9,6.5c-.2-.27-.39-.54-.6-.81l9-6.5Z"/><path class="cls-3" d="M130.61,111.72,122,117.93c-.17-.29-.34-.57-.52-.85h0l8.51-6.16Z"/><path class="cls-3" d="M134.55,117.75l-9.11,6.6-.43-.93,9-6.48Z"/><path class="cls-3" d="M136.6,123.84l-8.84,6.4-.33-1L136,123Z"/><path class="cls-3" d="M137.55,129l-8.56,6.2-.21-1.08,8.19-5.93Z"/><path class="cls-3" d="M137.55,133.54l-8.1,5.86c0-.39,0-.78-.07-1.17l7.59-5.5Z"/><path class="cls-3" d="M137.26,138.3l-8,5.82c0-.12,0-.25.05-.37,0-.33.08-.65.1-1h0l7.3-5.28Z"/><path class="cls-3" d="M136.6,143.24l-9,6.49a17.56,17.56,0,0,0,.66-1.7h0l7.72-5.59Z"/><path class="cls-3" d="M54.84,179.19l-9.24,6.57a23,23,0,0,1,1.2-2.09l7.46-5.3Z"/><path class="cls-3" d="M52.3,187.48l-9,6.5c0-.44,0-.88.11-1.32l8.28-6Z"/><path class="cls-3" d="M53.32,194.78l-9,6.53c-.11-.34-.21-.68-.29-1L52.73,194Z"/><path class="cls-3" d="M56.07,201l-9,6.49c-.17-.28-.34-.57-.5-.87l8.89-6.44Z"/><path class="cls-3" d="M60.91,207.64,52,214.1c-.23-.25-.45-.5-.66-.76l9-6.51Z"/><path class="cls-3" d="M67.41,214.25l-8.88,6.43-.75-.69,9-6.55Z"/><path class="cls-3" d="M73.38,219.78l-8.78,6.35-.76-.68,9-6.48Z"/><path class="cls-3" d="M79.52,226.09l-8.44,6.11-.73-.7,8.59-6.22Z"/><path class="cls-3" d="M85.13,230.71l-8.93,6.46-.73-.71,9.07-6.56Z"/><path class="cls-3" d="M90.92,236.86l-8.71,6.31c-.23-.24-.46-.48-.71-.72l8.84-6.4Z"/><path class="cls-3" d="M96.36,242.83,87.83,249l-.68-.73L95.78,242Z"/><path class="cls-3" d="M102,248.75,93.32,255l-.67-.76,8.72-6.31Z"/><path class="cls-3" d="M106.52,253.94l-8.71,6.3c-.2-.26-.42-.51-.63-.77l8.76-6.34Z"/><path class="cls-3" d="M111.09,259.18l-9,6.48-.59-.81,9-6.48Z"/><path class="cls-3" d="M114.68,265.25l-8.63,6.25-.52-.86h0l8.56-6.19Z"/><path class="cls-3" d="M117.73,271.35l-8.6,6.22c-.13-.31-.27-.62-.41-.93l8.43-6.1Z"/><path class="cls-3" d="M119.51,277.57l-8.42,6.09c-.07-.35-.15-.69-.25-1l8.09-5.86Z"/><path class="cls-3" d="M120.89,283.51l-9,6.55q0-.6,0-1.2h0l8.5-6.15Z"/><path class="cls-3" d="M119.87,289.88l-8.77,6.35c.11-.49.22-1,.31-1.46l7.87-5.7Z"/><path class="cls-3" d="M118.21,295l-9.13,6.61v0c.29-.55.56-1.11.8-1.7l0-.12h0l7.7-5.57Z"/><path class="cls-3" d="M14.7,341.94,6,348.24c.37-.7.75-1.38,1.16-2.07l7-5Z"/><path class="cls-3" d="M18.13,336.46l-8.9,6.44c.62-.91,1.28-1.79,2-2.65l6.35-4.6Z"/><path class="cls-3" d="M11.17,349.05l-8.11,5.87c.09-.28.19-.55.3-.83s.22-.58.35-.87h0l6.87-5Z"/><path class="cls-3" d="M9.73,356.1,1,362.44c0-.24.09-.47.14-.71s.11-.5.17-.75l7.86-5.69Z"/><path class="cls-3" d="M8.18,363.54.09,369.4c0-.22,0-.43,0-.65s0-.43.06-.65h0l7.41-5.36Z"/><path class="cls-3" d="M8.72,372.33l-8.4,6.08-.06-.56c0-.2,0-.39-.05-.59l7.93-5.74Z"/><path class="cls-3" d="M10.14,380.93,1.8,387c-.05-.17-.09-.35-.13-.52l-.12-.54,8-5.79Z"/><path class="cls-3" d="M13.29,388.4l-9,6.55c-.07-.17-.13-.32-.19-.49s-.12-.33-.17-.49l8.82-6.38Z"/><path class="cls-3" d="M16.92,396.89l-9,6.51c-.15-.31-.31-.61-.45-.91l8.87-6.41Z"/><path class="cls-3" d="M21.48,405.37l-8.77,6.35-.54-.84,8.73-6.32Z"/><path class="cls-3" d="M26.05,413.28l-8,5.81-.62-.79,8.05-5.83Z"/><path class="cls-3" d="M31.58,419.89l-7.89,5.71-.69-.74,8-5.78Z"/><path class="cls-3" d="M38.23,425.49l-8.38,6.07-.77-.68,8.56-6.2Z"/><path class="cls-3" d="M44.89,430.57l-8.61,6.23c-.28-.2-.56-.41-.83-.63l8.85-6.41Z"/><path class="cls-3" d="M51.49,435l-8.65,6.26-.91-.57,9-6.5Z"/><path class="cls-3" d="M59.15,439.57l-8.27,6-1-.49,8.72-6.31Z"/><path class="cls-3" d="M67,442.87l-8,5.77c-.4-.12-.8-.24-1.19-.38l8.57-6.2Z"/><path class="cls-3" d="M76.52,444.89l-8.13,5.89c-.46-.07-.93-.14-1.39-.23l8.93-6.47Z"/><path class="cls-3" d="M93,445.17l-7.63,5.53h0c-.69.11-1.37.2-2.07.29v0l9.13-6.61Z"/><path class="cls-3" d="M84.64,445.55l-8,5.83c-.56,0-1.12,0-1.67,0l9.13-6.61Z"/><path class="cls-3" d="M102.43,443.23l-6.25,4.53,0,0c-1.06.4-2.13.78-3.22,1.11l8.93-6.47Z"/></g></g></svg>